<?xml version="1.0" standalone="no"?>
<!DOCTYPE svg PUBLIC "-//W3C//DTD SVG 20010904//EN"
 "http://www.w3.org/TR/2001/REC-SVG-20010904/DTD/svg10.dtd">
<svg version="1.0" xmlns="http://www.w3.org/2000/svg"
 width="790.000000pt" height="790.000000pt" viewBox="0 0 790.000000 790.000000"
 preserveAspectRatio="xMidYMid meet">
<metadata>
Created by potrace 1.14, written by Peter Selinger 2001-2017
</metadata>
<g transform="translate(0.000000,790.000000) scale(0.100000,-0.100000)"
fill="#000000" stroke="none">
<path d="M3900 7746 c-19 -13 -44 -33 -54 -45 -11 -11 -24 -21 -31 -21 -7 0
-20 -10 -31 -21 -10 -12 -33 -31 -50 -43 -17 -11 -75 -55 -129 -96 -54 -41
-107 -81 -119 -89 -11 -8 -34 -27 -51 -41 -16 -15 -41 -34 -55 -43 -35 -24
-173 -130 -333 -254 -23 -18 -58 -44 -77 -58 -44 -32 -90 -67 -165 -125 -32
-25 -67 -51 -79 -59 -11 -8 -34 -27 -51 -41 -16 -15 -41 -34 -55 -43 -29 -20
-62 -45 -195 -147 -53 -41 -107 -82 -119 -90 -11 -8 -38 -28 -58 -45 -20 -16
-55 -43 -78 -60 -22 -16 -58 -43 -79 -60 -21 -16 -60 -46 -86 -65 -26 -19 -63
-49 -83 -65 -21 -17 -48 -39 -62 -48 -30 -21 -65 -47 -195 -147 -53 -41 -112
-85 -129 -96 -17 -12 -40 -31 -50 -43 -11 -11 -23 -21 -29 -21 -5 0 -27 -15
-47 -32 -21 -18 -59 -49 -85 -68 -26 -19 -66 -49 -89 -67 -22 -18 -60 -47 -84
-65 -23 -18 -57 -44 -75 -58 -17 -14 -42 -32 -53 -40 -56 -39 -211 -159 -223
-174 -15 -18 -4 -38 31 -57 19 -10 178 -45 243 -53 170 -21 225 -28 263 -32
36 -4 42 -9 42 -28 0 -17 -10 -28 -34 -40 -19 -9 -38 -16 -43 -16 -4 -1 -26
-9 -48 -20 -22 -11 -44 -19 -48 -20 -5 0 -23 -6 -40 -14 -18 -8 -65 -27 -105
-42 -40 -15 -75 -31 -78 -36 -3 -4 -22 -1 -42 8 -20 9 -84 22 -142 30 -93 12
-146 19 -280 39 -19 2 -64 8 -100 11 l-66 6 -49 -81 c-28 -45 -59 -97 -69
-114 -11 -18 -41 -65 -68 -105 -26 -40 -48 -75 -48 -77 0 -3 -25 -43 -55 -90
-37 -56 -55 -94 -55 -115 0 -17 37 -176 81 -353 45 -177 84 -333 87 -347 7
-35 30 -58 78 -81 23 -10 49 -25 57 -33 7 -8 39 -30 69 -50 31 -19 62 -41 69
-49 8 -7 48 -37 89 -65 41 -29 113 -79 160 -113 146 -104 202 -139 223 -139
11 0 36 -4 56 -9 20 -5 72 -17 116 -26 44 -10 109 -23 145 -31 151 -33 327
-67 351 -69 14 -1 55 2 90 6 35 4 105 11 154 14 50 4 97 8 105 10 8 2 56 7
105 10 89 6 91 5 155 -29 143 -76 267 -134 300 -141 132 -25 166 -38 200 -74
20 -20 43 -47 52 -60 9 -13 44 -52 77 -86 34 -34 61 -67 61 -73 0 -6 6 -15 13
-19 18 -12 144 -149 163 -178 16 -24 15 -28 -6 -73 -13 -26 -27 -56 -30 -67
-4 -11 -22 -48 -39 -83 -17 -34 -31 -68 -31 -75 0 -7 -18 -49 -40 -93 -22 -43
-40 -86 -40 -94 0 -9 -4 -20 -8 -25 -5 -6 -14 -48 -21 -95 -7 -47 -21 -139
-31 -205 -10 -66 -26 -169 -35 -230 -9 -60 -22 -150 -30 -200 -20 -131 -24
-163 -30 -235 -9 -116 -24 -342 -31 -460 l-6 -115 36 -48 c20 -26 36 -51 36
-55 0 -4 19 -26 43 -49 30 -29 56 -44 92 -52 58 -13 190 -40 255 -52 25 -4 68
-13 95 -19 51 -10 131 -21 445 -61 179 -22 300 -27 380 -16 25 4 83 11 130 16
47 6 146 17 220 26 129 16 622 109 647 123 7 4 38 41 69 82 31 41 61 78 66 81
15 9 14 12 -17 449 -3 41 -7 109 -10 150 -5 66 -35 283 -65 465 -5 33 -12 78
-15 100 -49 342 -58 389 -83 446 -11 24 -34 78 -52 119 -18 41 -50 112 -71
158 -22 46 -39 87 -39 92 0 5 -8 26 -17 46 -17 34 -17 37 0 49 9 7 17 16 17
20 0 4 24 32 54 63 30 32 65 69 78 85 13 15 48 55 78 88 30 34 66 75 80 92 82
102 87 105 207 132 62 14 130 35 150 47 21 12 90 48 153 81 l115 59 95 -7 c52
-4 102 -9 111 -10 8 -2 49 -6 90 -10 41 -3 97 -8 124 -11 28 -3 65 -7 83 -9
18 -1 140 20 270 47 130 27 293 60 362 74 71 15 134 33 145 43 11 9 31 25 45
34 25 17 66 46 130 92 19 14 51 36 70 50 19 14 51 36 70 50 19 14 51 36 70 50
19 14 49 35 66 47 75 55 159 108 169 108 19 0 52 43 58 75 10 54 19 90 25 105
3 8 7 28 9 44 2 16 8 35 14 43 7 7 9 16 6 19 -3 3 -1 20 5 37 9 30 14 47 37
142 5 22 21 83 35 135 14 52 28 118 31 145 6 46 3 55 -39 120 -24 39 -66 105
-93 148 -91 147 -151 242 -181 287 l-29 45 -59 -3 c-33 -1 -120 -11 -194 -21
-74 -11 -160 -23 -190 -26 -73 -8 -109 -14 -147 -28 -27 -9 -40 -7 -85 13
-118 52 -138 60 -146 60 -5 0 -22 6 -38 13 -16 8 -58 25 -92 38 -70 26 -96 54
-68 74 9 7 55 15 103 19 123 9 327 42 397 63 93 28 99 60 24 113 -30 21 -157
118 -351 267 -23 18 -56 43 -73 55 -18 13 -75 57 -128 98 -139 108 -177 137
-216 165 -51 37 -95 71 -204 155 -145 112 -178 138 -212 162 -18 13 -93 70
-168 128 -204 157 -218 168 -252 192 -18 13 -75 57 -128 98 -138 107 -177 137
-212 162 -18 13 -93 70 -168 128 -204 157 -218 168 -252 192 -18 13 -75 57
-128 98 -139 108 -177 137 -212 162 -18 13 -93 70 -168 128 -237 183 -219 174
-276 136z"/>
</g>
</svg>
